<svg xmlns:xlink="http://www.w3.org/1999/xlink" aria-hidden="true" focusable="false" xmlns="http://www.w3.org/2000/svg" viewBox="0 0 102 36" data-name="Logo - Reverse" width="102"  height="36" ><defs><clipPath id="akdh_dsker2amfd"><path fill="currentColor" d="M0 0h100.963v35.999H0z" data-name="Rectangle 152"></path></clipPath></defs><g fill="#FFFFFF" clip-path="url(#akdh_dsker2amfd)" data-name="Group 347" transform="translate(1)"><path d="M15.956.014h-3.747L0 35.45h8.8l7.484-21.722 7.481 21.722h8.8L21.677 3.821A6.239 6.239 0 0 0 15.956.014" data-name="Path 140" fill="#FFFFFF"></path><path d="M35.658 31.927a3.523 3.523 0 0 0 3.524 3.523h4.831V.003h-8.354Z" data-name="Path 141" fill="#FFFFFF"></path><path d="M60.811 0h-8.354v7.969h-4.889v7.31h4.889v10.827a9.342 9.342 0 0 0 9.343 9.343h6.045v-7.31h-7.034V15.278h7.585v-7.31h-7.585Z" data-name="Path 142" fill="#FFFFFF"></path><path d="M86.015 7.422c-8.133 0-14.95 5.5-14.95 14.344s6.816 14.233 14.95 14.233 14.948-5.386 14.948-14.233S94.15 7.422 86.015 7.422m0 20.993c-4.508 0-6.6-2.033-6.6-6.649s2.088-6.76 6.6-6.76 6.6 2.142 6.6 6.76-2.088 6.649-6.6 6.649" data-name="Path 143" fill="#FFFFFF"></path></g></svg>